<?xml version="1.0" encoding="utf-8"?>
<!-- Generator: $$$/GeneralStr/196=Adobe Illustrator 27.6.0, SVG Export Plug-In . SVG Version: 6.00 Build 0)  -->
<svg version="1.1" id="Réteg_1" xmlns="http://www.w3.org/2000/svg" xmlns:xlink="http://www.w3.org/1999/xlink" x="0px" y="0px"
	 viewBox="0 0 2880 2880" enable-background="new 0 0 2880 2880" xml:space="preserve">
<g>
	<path fill="#B5E604" d="M2834.4,745.7c0,144.6-61.7,288.1-180.9,388.4l-410.9,345.2l-814.5,684l-148.7-93.9
		c-12.7,128.8-64.5,246.1-143.5,339.4c-36.4,42.8-89.4,93.8-162.5,136.6c-55.1,32.2-103.8,49.3-132,57.9
		c-35.7,10.9-99.6,26.8-180.9,26.8c-227.3,0-426.1-122.2-534.5-304.5c-30.3-51.9-66.5-130-80.9-230c-5.7-39.6-7-75.9-6-107.8
		c163.3-131,326.7-261.9,490-392.9c251-210.9,502.1-421.8,753.1-632.7l61.4-51.3l658.1-552.9c214.4-179.8,533.9-152.1,714,62.2
		C2795.5,515.2,2834.4,630.8,2834.4,745.7z"/>
	<path fill="#4FD00A" d="M1282.3,962.2l61.4-51.3l898.9,568.5l360.1,227.9c236.5,149.5,307.1,462.7,157.6,699.3
		c-96.5,152.4-261,235.7-429,235.7c-92.5,0-186.1-25.4-270.3-78.4l-633-400.5l-148.7-93.9"/>
	<path opacity="0.45" fill="#CEE807" d="M1282.4,861.1v1147.6c0,20.5-0.9,40.9-2.9,60.8c-12.7,128.8-64.5,246.1-143.5,339.4
		c-36.4,42.8-89.4,93.8-162.5,136.6c-55.1,32.2-103.8,49.3-132,57.9c-35.7,10.9-99.6,26.8-180.9,26.8
		c-227.3,0-426.1-122.2-534.5-304.5c-55.3-92.8-87-201.1-87-316.9V861.1c0-117.8,32.8-228.2,89.6-322.1c0.3-0.3,0.3-0.3,0.3-0.3
		c109.2-179.5,306.3-299.4,531.6-299.4c171.7,0,327.3,69.7,439.7,182.1C1212.7,533.8,1282.4,689.4,1282.4,861.1z"/>
</g>
</svg>
