<?xml version="1.0" encoding="utf-8"?>
<!-- Generator: $$$/GeneralStr/196=Adobe Illustrator 27.6.0, SVG Export Plug-In . SVG Version: 6.00 Build 0)  -->
<svg version="1.1" id="Réteg_1" xmlns="http://www.w3.org/2000/svg" xmlns:xlink="http://www.w3.org/1999/xlink" x="0px" y="0px"
	 viewBox="0 0 355.4 374.9" enable-background="new 0 0 355.4 374.9" xml:space="preserve">
<g>
	<path opacity="0.11" fill="#4FD00A" d="M343.2,177.6c-23.3,34.9-73.2,143-60.9,183.2l-178.7,0c0,0-25.8-19.2-50.9-52.7
		c-4.6-6.1-9.1-12.6-13.4-19.6c-4.6-7.4-9-15.3-13-23.6c-11.6-24.2-19.9-52.3-20.3-83.3C4.8,74.2,97.7-25.5,224.1,14.7
		C350.5,55,366.5,142.6,343.2,177.6z"/>
	<g>
		<g>
			<path fill="#499EB2" d="M231.4,362c-0.4,0-0.7-0.2-1-0.5L135.1,243c-0.4-0.5-0.3-1.3,0.2-1.7c0.5-0.4,1.3-0.3,1.7,0.2L232.3,360
				c0.4,0.5,0.3,1.3-0.2,1.7C231.9,361.9,231.6,362,231.4,362z"/>
		</g>
		<g>
			<path fill="#75A9B7" d="M83.5,362c-0.3,0-0.5-0.1-0.8-0.3c-0.5-0.4-0.6-1.2-0.2-1.7l95.3-118.5c0.4-0.5,1.2-0.6,1.7-0.2
				c0.5,0.4,0.6,1.2,0.2,1.7L84.5,361.5C84.3,361.8,83.9,362,83.5,362z"/>
		</g>
		<g>
			<path fill="#499EB2" d="M178.8,362c-0.4,0-0.7-0.2-1-0.5L82.6,243c-0.4-0.5-0.3-1.3,0.2-1.7c0.5-0.4,1.3-0.3,1.7,0.2L179.8,360
				c0.4,0.5,0.3,1.3-0.2,1.7C179.4,361.9,179.1,362,178.8,362z"/>
		</g>
		<path fill="#499EB2" d="M100.4,245.4H56.2c-1.7,0-3.1-1.4-3.1-3.1l0,0c0-1.7,1.4-3.1,3.1-3.1h44.3c1.7,0,3.1,1.4,3.1,3.1l0,0
			C103.6,244,102.2,245.4,100.4,245.4z"/>
		<path fill="#75A9B7" d="M227.8,245.4H101.3c-1.7,0-3.1-1.4-3.1-3.1l0,0c0-1.7,1.4-3.1,3.1-3.1h126.5V245.4z"/>
		<g opacity="0.15">
			<path fill="#499EB2" d="M134.6,301.5c0,1.9-1.5,3.4-3.4,3.4c-1.9,0-3.4-1.5-3.4-3.4c0-1.9,1.5-3.4,3.4-3.4
				C133.1,298.1,134.6,299.6,134.6,301.5z"/>
		</g>
		<path fill="#FFC947" d="M187.2,301.5c0,1.9-1.5,3.4-3.4,3.4s-3.4-1.5-3.4-3.4c0-1.9,1.5-3.4,3.4-3.4S187.2,299.6,187.2,301.5z"/>
	</g>
	<g>
		<path fill="#B5E604" d="M141.4,145.2H96.8c-2.2,0-4-1.8-4-4V108c0-2.2,1.8-4,4-4h44.6c2.2,0,4,1.8,4,4v33.2
			C145.4,143.4,143.6,145.2,141.4,145.2z"/>
		<path fill="#FFFFFF" d="M130.5,122.2h-1.7c-0.3-0.9-0.6-1.8-1.1-2.5l1.3-1.3c0.5-0.5,0.5-1.3,0-1.8l-1.8-1.8
			c-0.5-0.5-1.3-0.5-1.8,0l-1.4,1.4c-0.7-0.4-1.6-0.8-2.4-1v-2c0-0.7-0.6-1.2-1.2-1.2H118c-0.7,0-1.2,0.6-1.2,1.2v2.1
			c-0.8,0.2-1.6,0.5-2.3,0.9l-1.5-1.5c-0.5-0.5-1.3-0.5-1.8,0l-1.8,1.8c-0.5,0.5-0.5,1.3,0,1.8l1.4,1.4c-0.5,0.7-0.8,1.5-1.1,2.4
			h-1.9c-0.7,0-1.2,0.6-1.2,1.2v2.5c0,0.7,0.6,1.2,1.2,1.2h1.7c0.2,0.9,0.5,1.8,1,2.7l-1.2,1.2c-0.5,0.5-0.5,1.3,0,1.8l1.8,1.8
			c0.5,0.5,1.3,0.5,1.8,0l1-1c0.8,0.5,1.8,1,2.7,1.2v1.4c0,0.7,0.6,1.2,1.2,1.2h2.5c0.7,0,1.2-0.6,1.2-1.2v-1.3c1-0.2,2-0.6,2.8-1.1
			l1,1c0.5,0.5,1.3,0.5,1.8,0l1.8-1.8c0.5-0.5,0.5-1.3,0-1.8l-1-1c0.5-0.8,0.9-1.8,1.1-2.8h1.5c0.7,0,1.2-0.6,1.2-1.2v-2.5
			C131.8,122.8,131.2,122.2,130.5,122.2z M120.5,131.2c-4.5,0.9-8.4-3-7.5-7.5c0.5-2.5,2.5-4.5,5-5c4.5-0.9,8.4,3,7.5,7.5
			C125,128.7,123,130.8,120.5,131.2z"/>
	</g>
	<g>
		<path fill="#499EB2" d="M208.6,122.5H164c-2.2,0-4-1.8-4-4V85.3c0-2.2,1.8-4,4-4h44.6c2.2,0,4,1.8,4,4v33.2
			C212.6,120.7,210.8,122.5,208.6,122.5z"/>
		<g>
			<g>
				<g>
					<path fill="#FFFFFF" d="M177.4,108.8c-0.3,0-0.6-0.1-0.9-0.4l-5.5-5.9c-0.5-0.5-0.5-1.3,0-1.9l5.6-6c0.5-0.5,1.3-0.5,1.7,0
						c0.5,0.5,0.5,1.3,0,1.9l-4.8,5.1l4.7,5c0.5,0.5,0.5,1.3,0,1.9C178,108.7,177.7,108.8,177.4,108.8z"/>
				</g>
				<g>
					<path fill="#FFFFFF" d="M195.2,108.8c-0.3,0-0.6-0.1-0.9-0.4c-0.5-0.5-0.5-1.3,0-1.9l4.7-5l-4.8-5.1c-0.5-0.5-0.5-1.3,0-1.9
						c0.5-0.5,1.3-0.5,1.7,0l5.6,6c0.2,0.2,0.4,0.6,0.4,0.9c0,0.3-0.1,0.7-0.4,0.9l-5.5,5.9C195.8,108.7,195.5,108.8,195.2,108.8z"
						/>
				</g>
			</g>
			<g>
				<path fill="#FFFFFF" d="M183.5,110.4c-0.2,0-0.3,0-0.5-0.1c-0.6-0.3-0.9-1-0.7-1.7l5.5-14.5c0.3-0.7,1-1,1.6-0.7
					c0.6,0.3,0.9,1,0.7,1.7l-5.5,14.5C184.5,110.1,184,110.4,183.5,110.4z"/>
			</g>
		</g>
	</g>
	<g>
		<g>
			<path fill="#FFFFFF" d="M248.9,130.4H138.2V127c0-0.9,0.7-1.7,1.7-1.7h107.4c0.9,0,1.7,0.7,1.7,1.7V130.4z"/>
			<path fill="#B5E604" d="M245.8,189.4H141.3c-1.7,0-3.1-1.4-3.1-3.1v-55.9h110.7v55.9C248.9,188,247.5,189.4,245.8,189.4z"/>
			<g>
				<g>
					<path fill="#499EB2" d="M243.5,127.9c0,0.4-0.3,0.8-0.8,0.8s-0.8-0.3-0.8-0.8c0-0.4,0.3-0.8,0.8-0.8S243.5,127.4,243.5,127.9z"
						/>
					<path fill="#499EB2" d="M238.2,127.9c0,0.4-0.3,0.8-0.8,0.8c-0.4,0-0.8-0.3-0.8-0.8c0-0.4,0.3-0.8,0.8-0.8
						C237.9,127.1,238.2,127.4,238.2,127.9z"/>
					<path fill="#499EB2" d="M232.9,127.9c0,0.4-0.3,0.8-0.8,0.8c-0.4,0-0.8-0.3-0.8-0.8c0-0.4,0.3-0.8,0.8-0.8
						C232.5,127.1,232.9,127.4,232.9,127.9z"/>
				</g>
			</g>
			<path fill="#B5E604" d="M205.4,138.4h-61.5c-0.6,0-1.1-0.5-1.1-1.1l0,0c0-0.6,0.5-1.1,1.1-1.1h61.5c0.6,0,1.1,0.5,1.1,1.1l0,0
				C206.4,137.9,206,138.4,205.4,138.4z"/>
			<path fill="#B5E604" d="M205.4,145.2h-61.5c-0.6,0-1.1-0.5-1.1-1.1l0,0c0-0.6,0.5-1.1,1.1-1.1h61.5c0.6,0,1.1,0.5,1.1,1.1l0,0
				C206.4,144.7,206,145.2,205.4,145.2z"/>
			<path fill="#B5E604" d="M176.1,152h-32.1c-0.6,0-1.1-0.5-1.1-1.1l0,0c0-0.6,0.5-1.1,1.1-1.1h32.1c0.6,0,1.1,0.5,1.1,1.1l0,0
				C177.1,151.5,176.7,152,176.1,152z"/>
			<path fill="#499EB2" d="M205.4,165.6h-61.5c-0.6,0-1.1-0.5-1.1-1.1l0,0c0-0.6,0.5-1.1,1.1-1.1h61.5c0.6,0,1.1,0.5,1.1,1.1l0,0
				C206.4,165.1,206,165.6,205.4,165.6z"/>
			<path fill="#499EB2" d="M176.1,172.4h-32.1c-0.6,0-1.1-0.5-1.1-1.1l0,0c0-0.6,0.5-1.1,1.1-1.1h32.1c0.6,0,1.1,0.5,1.1,1.1l0,0
				C177.1,171.9,176.7,172.4,176.1,172.4z"/>
			<path fill="#B5E604" d="M176.1,179.2h-32.1c-0.6,0-1.1-0.5-1.1-1.1l0,0c0-0.6,0.5-1.1,1.1-1.1h32.1c0.6,0,1.1,0.5,1.1,1.1l0,0
				C177.1,178.7,176.7,179.2,176.1,179.2z"/>
			<path fill="#FFFFFF" d="M205.4,152h-23.1c-0.6,0-1.1-0.5-1.1-1.1l0,0c0-0.6,0.5-1.1,1.1-1.1h23.1c0.6,0,1.1,0.5,1.1,1.1l0,0
				C206.4,151.5,206,152,205.4,152z"/>
			<path fill="#499EB2" d="M235.9,136.7L219.6,153c-0.4,0.4-1.1,0.4-1.5,0l0,0c-0.4-0.4-0.4-1.1,0-1.5l16.3-16.3
				c0.4-0.4,1.1-0.4,1.5,0l0,0C236.3,135.6,236.3,136.3,235.9,136.7z"/>
			
				<ellipse transform="matrix(0.2307 -0.973 0.973 0.2307 11.543 349.7599)" fill="#FF6224" cx="227" cy="167.6" rx="9.6" ry="9.6"/>
			<path fill="#20C3C5" d="M225.7,174.3c0,3-2.4,5.5-5.5,5.5c-3,0-5.5-2.4-5.5-5.5c0-3,2.4-5.5,5.5-5.5
				C223.3,168.8,225.7,171.3,225.7,174.3z"/>
		</g>
	</g>
	<g>
		<polygon fill="#4FD00A" points="119.1,208.2 158.4,208.2 172.6,235.5 133.3,235.5 		"/>
		<path fill="#FFFFFF" d="M134.1,233.5l-11.8-22.6c-0.2-0.5,0.1-1,0.6-1h34c0.3,0,0.5,0.1,0.6,0.4l11.8,22.6c0.2,0.5-0.1,1-0.6,1
			h-34C134.5,233.8,134.2,233.7,134.1,233.5z"/>
		<rect x="133.3" y="235.5" opacity="0.45" fill="#CEE807" width="31.8" height="3.6"/>
		<path fill="#CDF916" d="M192.5,235.5h-31.4c-1,0-1.8,0.8-1.8,1.8l0,0c0,1,0.8,1.8,1.8,1.8h31.4c1,0,1.8-0.8,1.8-1.8l0,0
			C194.3,236.3,193.5,235.5,192.5,235.5z"/>
		<path opacity="0.45" fill="#CEE807" d="M133.3,235.5l-14.2-27.3l-0.7,0.5c-0.5,0.3-0.6,1-0.3,1.5l15.2,29V235.5z"/>
		<rect x="144.1" y="237.2" fill="#286803" width="3.5" height="0.6"/>
		<rect x="148.5" y="237.2" fill="#286803" width="3.5" height="0.6"/>
		<rect x="152.9" y="237.2" fill="#286803" width="3.5" height="0.6"/>
	</g>
	<g>
		<path fill="#B5E604" d="M204.9,289c0,0-32.6,25.4-37.7,31.8c-1.9,2.4-5.3,6.7-8.9,11.1c-5.8,7.2-11.9,14.7-12.6,14.9
			c-1.2,0.3-10.9-7.1-11.2-8.7c-0.2-1,8.7-16.3,16.4-28.5c4.7-7.5,8.9-13.8,10.4-15.2c3.9-3.7,28.2-16.5,28.2-16.5L204.9,289z"/>
		<path opacity="0.15" fill="#FFFFFF" stroke="#000000" stroke-width="0.8185" stroke-linecap="round" stroke-miterlimit="10" d="
			M142.8,341.3c0,0,30.4-43.3,45.7-50.6"/>
		<path fill="#382424" d="M238.9,177.8c-0.3,0.8-0.7,1.6-1.2,2.4c-2.4,4.6-0.6,9.1-3.3,10.3c-0.2,0.1-0.3,0.1-0.5,0.2
			c-3.5,0.8-11.6-3.9-11.9-6.2c-0.4-2.3,2.5-6.3,0-6.8c-2.5-0.5-3.8,3.7-3.8,3.7c-2,0.2-2.8-3.2-6.1-3.2c-0.5,0-0.9,0.1-1.4,0.2
			c-1.6,0.4-3,1.4-3.8,2.1c-0.7,0.5-1,1-1,1s-3-1.9-2.8-5.6c0.2-5.9,2.4-10.2,7.7-11.1c0.6-6.6,6-10.1,13.2-10.3
			c6.3-0.2,7.3,5.5,7.4,6.9c-0.1-1.1-0.4-4.5-1.9-6.9c3.2-0.1,6,2.1,5.2,9.5c0.7-2.2,3.3-3.6,5.2-2c-1.8,0-3.6,3.1-3.6,3.1
			s2.1,1.4,3.6,3.9C240.9,171,240.5,174,238.9,177.8z"/>
		<path fill="#FFAD94" d="M234.3,190.5l-0.1,1.1l-0.3,3.8c0,0-5.8,5-9.1,0c0,0,0-0.1-0.1-0.1c-1-1.5-1.9-2.1-2.8-2.2
			c-1.8-0.2-3.3,1.6-4.8-0.4c-4.4-5.5-6.1-11.9-6.6-14.5c0.5-0.1,0.9-0.2,1.4-0.2c3.4,0,4.1,3.4,6.1,3.2c0,0,1.3-4.2,3.8-3.7
			c2.5,0.5-0.4,4.5,0,6.8c0.2,1,1.8,2.5,4,3.8c2.5,1.5,5.6,2.7,7.6,2.5c0.1,0,0.2,0,0.4-0.1C234,190.6,234.2,190.5,234.3,190.5z"/>
		<path opacity="0.25" d="M235.2,197.6c-2.6,1.8-7.4,2.1-7.4,2.1l-3.9-0.6c0,0-1.6-2.4-0.9-3.7c0.1-0.3,0.5-0.6,1-1
			c1.1-0.9,2.8-2,4.5-2.9c1.8-0.9,3.7-1.7,5-1.8C236.9,189.5,237.9,195.8,235.2,197.6z"/>
		<path fill="#75A9B7" d="M234.5,261.4c-5.9,1.1-18.3-2.3-24.2-5c-1.8-0.8-2.9-1.5-3.2-2c-1.1-2,0-3.5,2.8-9.9
			c0.3-0.7,0.7-1.5,1-2.3c1.9-4.5,1.9-14.1,1.9-22.4c0-7.1-0.1-13.2,1.1-14.3c2.4-2.4,14.7-10.1,14.7-10.1l2.4,12.7
			c0,0,1.4,6.4,2.8,14.8C236.5,238.3,239.4,260.5,234.5,261.4z"/>
		<path fill="#B5E604" d="M238.6,267.1c0,0.6-5.8,14.2-10.7,16.1c-4.9,1.9-34.4-0.2-34.4-0.2l-14.6,9.5l3.1,28.7l2.1,20l0.1,0.6
			c-4.5,2.9-15.7,3.7-16.9,1.2c0,0,0,0,0,0c-1.2-2.5-19.1-56.4-12.1-65.7c7-9.3,51.9-23,51.9-23c1.2,0.7,2.5,1.4,4,2
			c5,2,11.3,3.3,16.2,4.1c1.9,0.3,3.5,0.5,4.7,0.6c1.6,0.2,2.5,0.3,2.5,0.3S238.6,266.5,238.6,267.1z"/>
		<path fill="#348E00" d="M185.9,360.7H148c-0.2-0.7,0.1-1.4,0.6-2c1.5-1.8,5.4-3.7,9.1-5.3c3.5-1.5,6.9-2.8,8.1-3.7
			c2.7-2.1,1.4-6.2,1.4-6.5c0.4,0.8,2,1.3,4,1.5c4,0.3,10-0.7,12.9-2.6l-0.1-0.6c1.1,2.2,1.7,12.8,1.8,17.4
			C185.9,359.9,185.9,360.7,185.9,360.7z"/>
		<path fill="#145E02" d="M171.2,344.6c-0.1,1.8-0.4,4.7-0.9,5.5c-0.8,1.2-9.1,5.3-10.3,4.9c-0.8-0.2-1.7-1.1-2.2-1.6
			c3.5-1.5,6.9-2.8,8.1-3.7c2.7-2.1,1.4-6.2,1.4-6.5C167.6,344,169.1,344.5,171.2,344.6z"/>
		<path fill="#037C17" d="M185.9,360.7H148c-0.2-0.7,0.1-1.4,0.6-2h37.2C185.9,359.9,185.9,360.7,185.9,360.7z"/>
		<path fill="#348902" d="M145.7,346.7c0,0-2.9,7.6-5.4,11.6c-1,1.6-1.9,2.6-2.6,2.4c-2.3-0.9-25.8-20.8-23.5-22.3
			c0.3-0.2,0.9-0.4,1.5-0.4c2-0.3,5.4,0,8.5,0.3c2.7,0.3,5.2,0.6,6.5,0.6c3.3,0,3.7-1,3.7-1c0.1,0.4,0.7,1.1,1.6,2
			C139,342.7,144.8,346.9,145.7,346.7z"/>
		<path fill="#03680A" d="M136.1,340c-5,3.3-10.1,1.3-11.2,0.6c-0.8-0.5-0.8-1.6-0.7-2.2c2.7,0.3,5.2,0.6,6.5,0.6c3.3,0,3.7-1,3.7-1
			C134.5,338.4,135.1,339.1,136.1,340z"/>
		<path fill="#007C17" d="M140.3,358.3c-1,1.6-1.9,2.6-2.6,2.4c-2.3-0.9-25.8-20.8-23.5-22.3c0.3-0.2,0.9-0.4,1.5-0.4L140.3,358.3z"
			/>
		<path fill="#FFAD94" d="M210.3,236.6c-1.8,2.6-5.1,6.4-7.8,6.1c-0.1,0-0.2,0-0.3-0.1c-5.2-0.9-35.5-8.5-36.9-8.8
			c-1.5-0.3-11.7-0.4-11.1-1.5c0.6-1.1,6.4-4.5,8-4.4c1.6,0.1,7.7,1.9,13.8,1.7c6.1-0.2,22.2,0,22.2,0l0.8-1.3l1.1-2
			C199.7,232.3,206.9,237.1,210.3,236.6z"/>
		<path opacity="0.15" fill="none" stroke="#000000" stroke-width="0.8185" stroke-linecap="round" stroke-miterlimit="10" d="
			M210.3,258.8c0,0-1.4,7.4,4,9.9"/>
		<path opacity="0.15" fill="#1F5400" stroke="#000000" stroke-width="0.8185" stroke-linecap="round" stroke-miterlimit="10" d="
			M207.4,264.7c0,0-36,15.4-37.8,20.1c-1.7,4.8,9.2,56.4,9.2,56.4"/>
		<path opacity="0.15" d="M238.6,267.1c0,0.6-5.8,14.2-10.7,16.1c-4.9,1.9-34.4-0.2-34.4-0.2l-14.6,9.5l3.1,28.7
			c0,0-6.2-32.8-6.2-35c0-1.8,40.7-13.5,51.5-25.8c4.2,0.7,7.3,0.9,7.3,0.9S238.6,266.5,238.6,267.1z"/>
		<path opacity="0.25" d="M219.3,232.3c-2.5,3.6-6.6,8.1-9.5,12.3c0.3-0.7,0.7-1.5,1-2.3c1.9-4.5,1.9-14.1,1.9-22.4l8.7-5.8
			C221.5,214,223.4,226.5,219.3,232.3z"/>
		<path fill="#B5E604" d="M211.9,235.5c-0.4,0.3-0.8,0.7-1.1,1c-0.1,0-0.3,0.1-0.5,0.1c-3.4,0.5-10.6-4.4-10.3-10.3
			c0-0.4,0.4-1.3,0.9-2.5c2.9-5.9,11.7-19.1,13.4-18.5c0,0,5.7,0.9,7.2,8.6C223,221.3,217.8,230.1,211.9,235.5z"/>
		<path fill="#499EB2" d="M231.9,261.2c-1.2-0.1-2.9-0.4-4.7-0.6c-4.8-0.8-11.2-2-16.2-4.1c4.4-0.2,13.8-3.1,15-24.6
			c0.5,4,1.3,8.2,2.4,12.5C229.8,250,231.2,256,231.9,261.2z"/>
		<path opacity="0.25" d="M229.6,190c-0.5,0.5-0.8,1-1.1,1.4c-1.8,0.9-3.5,2-4.5,2.9c-0.7-0.8-1.4-1.1-2.1-1.2l3.9-4.9
			C227,189,228.4,189.6,229.6,190z"/>
		<path opacity="0.25" d="M210.3,236.6c-1.8,2.6-5.1,6.4-7.8,6.1c-0.1,0-0.2,0-0.3-0.1c-3.3-4.8-3.5-11.2-3.3-14.3l1.1-2
			C199.7,232.3,206.9,237.1,210.3,236.6z"/>
		<path opacity="0.25" d="M238.9,177.8c-0.3,0.8-0.7,1.6-1.2,2.4c-1.2,2.2-1.3,4.5-1.5,6.3c-0.4-0.3-0.8-0.6-1.2-0.8
			c-2.5,1.5-4.2,3.1-5.3,4.4l0,0c-3.6-1.3-7.5-4-7.8-5.6c-0.4-2.3,2.5-6.3,0-6.8c-2.5-0.5-3.8,3.7-3.8,3.7c-2,0.2-2.8-3.2-6.1-3.2
			c-0.5,0-0.9,0.1-1.4,0.2c-1.6,0.4-3,1.4-3.8,2.1c0,0,3.8-5.3,9.7-4.2c0,0-0.9-1.7-4.9-1.5c8.4-2.7,13.7-1.7,16.3,1.4
			C229.9,178.5,234.8,181.6,238.9,177.8z"/>
	</g>
	<g>
		<path fill="#8EC66D" d="M255.9,292.6h-29.2c0,0,23.1-6.8,23.1-52.7c0-0.6,0-1.2,0-1.8c-0.2-30.7-6.8-47.6-14.9-52.4
			c2.5-1.5,5.9-2.9,10.3-3.9c1.9-0.4,4.1-0.8,6.4-1c20-2,35.9,5.8,37.8,14.7C291.5,204.3,279.8,292.6,255.9,292.6z"/>
		<path fill="#75A9B7" d="M249.8,239.9c0,45.9-23.1,52.7-23.1,52.7h-47.8l2-1.4l12.6-8.1l25.3-1.8c1.4-5.6,5.1-5.8,10.7-6.4
			c3.3-0.3,3.6-5.9,2.6-13.2c-0.7-5.3-2.1-11.5-3.6-17.3c-1.1-4.3-1.9-8.5-2.4-12.5c-0.6-4.7-0.9-9.2-0.9-13.5
			c-0.1-9.7,1.1-17.9,2.3-23.9c0.1-0.6,0.2-1.1,0.4-1.7c0,0,0,0,0-0.1c0.1-0.3,0.6-1.3,1.8-2.7l0,0c1.1-1.3,2.8-2.8,5.3-4.4
			c0.4,0.2,0.8,0.5,1.2,0.8c7.5,5.7,13.4,22.5,13.7,51.6C249.8,238.7,249.8,239.3,249.8,239.9z"/>
		<path fill="#BFFFA1" d="M240.6,360.7h-34.4c-1.2,0-1.7-1.5-0.8-2.2l8.6-6.7c3.8-3,6.1-7.6,6.1-12.4v-46.8h6.6v46.8
			c0,4.9,2.2,9.4,6.1,12.4l8.6,6.7C242.3,359.2,241.8,360.7,240.6,360.7z"/>
		<g opacity="0.25">
			<g>
				<path fill="none" stroke="#000000" stroke-width="0.8185" stroke-linecap="round" stroke-miterlimit="10" d="M266.9,182.5
					c0,0,0.3,0.6,0.7,1.9"/>
				
					<path fill="none" stroke="#000000" stroke-width="0.8185" stroke-linecap="round" stroke-miterlimit="10" stroke-dasharray="4.1525,4.1525" d="
					M268.7,188.4c1.2,4.4,2.7,11.2,3.9,20.5c3.1,24.2,0,58.1-21.1,79.5"/>
				<path fill="none" stroke="#000000" stroke-width="0.8185" stroke-linecap="round" stroke-miterlimit="10" d="M250.1,289.9
					c-0.5,0.5-1,0.9-1.5,1.4"/>
			</g>
		</g>
		<path opacity="0.15" d="M226.7,292.6v12.8c-2.3,1.2-4.6,2.1-6.6,2.8v-15.6H226.7z"/>
		<path opacity="0.15" d="M235.8,272.7c-1.6,4.9-11.3,4-12.4,7.6c-2.5,7.6-3.9,4.3-13.5,5.2c-5.5,0.6-9.5,4.1-11.9,7h-19.1l2-1.4
			l12.6-8.1l25.3-1.8c1.4-5.6,5.1-5.8,10.7-6.4c3.3-0.3,3.6-5.9,2.6-13.2c-0.7-5.3-2.1-11.5-3.6-17.3c-1.1-4.3-1.9-8.5-2.4-12.5
			c-0.6-4.7-0.9-9.2-0.9-13.5C228.8,237.8,237,269.1,235.8,272.7z"/>
		<path opacity="0.15" d="M249.8,239.9c0-0.6,0-1.2,0-1.8c-0.2-30.7-6.8-47.6-14.9-52.4c2.5-1.5,5.9-2.9,10.3-3.9
			c-1.3,1.9-2.7,4.8-2.1,7.9c1.2,5.5,14.4,26.5,9.3,60.1c-3.7,24.3-2.4,36.9,1.4,42.8h-27.2C226.7,292.6,249.8,285.8,249.8,239.9z"
			/>
	</g>
	<path opacity="0.25" d="M82.9,214.9c0,1.1-0.1,2.1-0.3,3h-9.4c-2.8-1.8-7.3-5.5-10-10.9c2.5,2.7,6.8,6.1,11.2,7.1
		C78.2,214.9,81.1,214.5,82.9,214.9z"/>
	<g>
		<path fill="#4FD00A" d="M104.7,177.6c-1,3.8-5.9,11.2-10.2,19.1c-4.8,8.6-9.1,17.9-7.4,23.7c0.4,1.5,0.6,2.6,0.6,3.3
			c0,2.6-1.9,1.8-3.9,0.3c-2-1.5-4-3.6-4-3.6l0.1-11.4c0,0-6.4-5.9-1.2-18.9c0.3-0.8,0.7-1.7,1.2-2.6c7.3-14.7,18.2-30.2,7.9-34.6
			C102.1,152.1,106.9,169.6,104.7,177.6z"/>
		<path opacity="0.53" fill="#4FD00A" d="M87.8,153c0,0,7.4,1.2,8.8,11.4c1.3,10.2-19,37.6-15.6,47"/>
		<path fill="#4FD00A" d="M98.1,200.6c-4.4,11.5,0,20.3-6.6,21.5c-3,0.6-4.3-1.7-4.9-4.2c-0.7-3.1-0.2-6.6-0.2-6.6s1.1-2.8,3.5-5.6
			C91.8,203.4,94.5,201.2,98.1,200.6z"/>
		<path fill="#4FD00A" d="M82.9,214.9c0,2.7-0.6,5-1.9,6.2c-0.1,0.1-0.2,0.2-0.4,0.3c-3.1,2.5-5.1-2.1-5.1-2.1s-8.3-4.1-12.3-12.3
			c-3.1-6.3-3.8-15.2,3.5-26.5c1.1,8.1,5.5,13.6,9.9,18.8c0,0,0,0,0,0c0.5,0.7,1.1,1.3,1.6,1.9C81.3,204.8,82.9,210.4,82.9,214.9z"
			/>
		<path opacity="0.53" fill="#4FD00A" d="M66.8,180.4c0,0-2.5,10.1,1.3,18.4c3.8,8.3,12.4,12.1,11.7,20.1"/>
		<path opacity="0.25" fill="#4FD00A" d="M98.1,200.6c0,0-9.8,10.6-11.1,19.8"/>
		<path fill="#123001" d="M95.5,220.7l-2.8,17.2c-0.1,0.7-0.8,1.2-1.5,1.2H73.7c-0.7,0-1.4-0.5-1.5-1.2l-2.3-14l-0.5-3.2
			c-0.2-0.9,0.5-1.8,1.5-1.8h23C94.9,218.9,95.6,219.8,95.5,220.7z"/>
		<path fill="#2C7203" d="M98.1,224.2H66.8l0.8-4.7c0.2-1,1-1.7,2-1.7h25.7c1,0,1.8,0.7,2,1.7L98.1,224.2z"/>
		<path opacity="0.25" fill="#4FD00A" d="M86.5,211.2c0,0-0.4,3.5,0.2,6.6h-4.1c0.2-0.9,0.3-1.9,0.3-3c0-4.5-1.6-10.1-4.6-13.7
			c-0.5-0.6-1.1-1.3-1.6-1.9c0,0,0,0,0,0c0.1-2.5,0.6-5.5,2.1-9.1c0.2,4.1,1.3,11.3,5.4,12.1c3.1,0.6,7.2-2.5,10.3-5.5
			c-1.6,3-3.2,6-4.5,8.9C87.6,208.4,86.5,211.2,86.5,211.2z"/>
		<path opacity="0.25" fill="#4FD00A" d="M84.1,239.1H73.7c-0.7,0-1.4-0.5-1.5-1.2L70,224.2h9c-0.2,1.9-0.5,5.5,0.2,8.3
			C79.7,234.7,81.6,237.5,84.1,239.1z"/>
	</g>
	<g>
		<path fill="#B5E604" d="M163,97.5h-44.6c-2.2,0-4-1.8-4-4V60.4c0-2.2,1.8-4,4-4H163c2.2,0,4,1.8,4,4v33.2
			C167,95.8,165.2,97.5,163,97.5z"/>
		<g>
			<path fill="#FFFFFF" d="M126.7,71v4.4c0,0.4,0.3,0.6,0.6,0.6h2.5c0.4,0,0.6-0.3,0.6-0.6V71c0-0.4,0.3-0.6,0.6-0.6h0.2
				c0.4,0,0.6,0.3,0.6,0.6v12c0,0.4-0.3,0.6-0.6,0.6H131c-0.4,0-0.6-0.3-0.6-0.6v-4.9c0-0.4-0.3-0.6-0.6-0.6h-2.5
				c-0.4,0-0.6,0.3-0.6,0.6V83c0,0.4-0.3,0.6-0.6,0.6h-0.2c-0.4,0-0.6-0.3-0.6-0.6V71c0-0.4,0.3-0.6,0.6-0.6h0.2
				C126.4,70.3,126.7,70.6,126.7,71z"/>
			<path fill="#FFFFFF" d="M135.2,71.7h-1.1c-0.4,0-0.6-0.3-0.6-0.6V71c0-0.4,0.3-0.6,0.6-0.6h5.1c0.4,0,0.6,0.3,0.6,0.6V71
				c0,0.4-0.3,0.6-0.6,0.6H138c-0.4,0-0.6,0.3-0.6,0.6V83c0,0.4-0.3,0.6-0.6,0.6h-0.2c-0.4,0-0.6-0.3-0.6-0.6V72.3
				C135.8,72,135.6,71.7,135.2,71.7z"/>
			<path fill="#FFFFFF" d="M149.3,77.9c-0.1-1.8-0.2-3.7-0.1-5.2h-0.1c-0.3,1.5-0.7,3.1-1.1,4.6l-1.6,6.2h-1l-1.6-6
				c-0.4-1.7-0.8-3.3-1.1-4.9h-0.1c0,1.6-0.1,3.4-0.2,5.3l-0.2,5c0,0.3-0.3,0.6-0.6,0.6h-0.1c-0.4,0-0.7-0.3-0.6-0.7l0.7-12
				c0-0.3,0.3-0.6,0.6-0.6h0.5c0.3,0,0.5,0.2,0.6,0.5l1.4,5.6c0.5,1.8,0.8,3.1,1.1,4.6h0.1c0.3-1.5,0.6-2.8,1-4.6l1.4-5.6
				c0.1-0.3,0.3-0.5,0.6-0.5h0.6c0.3,0,0.6,0.3,0.6,0.6l0.7,12c0,0.4-0.3,0.7-0.6,0.7h-0.1c-0.3,0-0.6-0.3-0.6-0.6L149.3,77.9z"/>
			<path fill="#FFFFFF" d="M153.7,70.3h0.2c0.4,0,0.6,0.3,0.6,0.6v10.8c0,0.4,0.3,0.6,0.6,0.6h2.5c0.4,0,0.6,0.3,0.6,0.6l0,0
				c0,0.4-0.3,0.6-0.6,0.6h-4c-0.4,0-0.6-0.3-0.6-0.6V71C153,70.6,153.3,70.3,153.7,70.3z"/>
		</g>
	</g>
	<g>
		<g>
			<g>
				<path fill="#B5E604" d="M183.3,59.9c1.7,0,2.1-1.1,2.1-2.1c0-0.9-0.1-1.7-0.2-2.6c-0.1-0.9-0.2-1.7-0.2-2.7
					c0-2.7,1.7-3.9,3.8-3.9h0.4v1.6h-0.5c-1.3,0-1.8,0.9-1.8,2.3c0,0.8,0.1,1.6,0.2,2.3c0.1,0.8,0.2,1.5,0.2,2.2
					c0,2.4-0.8,3.2-2.1,3.6v0.1c1.3,0.4,2.1,1.2,2.1,3.6c0,0.8-0.1,1.5-0.2,2.3c-0.1,0.8-0.2,1.5-0.2,2.3c0,1.4,0.5,2.3,1.8,2.3h0.4
					v1.6h-0.4c-2,0-3.8-1-3.8-3.9c0-0.9,0.1-1.8,0.2-2.7c0.1-0.9,0.2-1.8,0.2-2.6c0-1-0.4-2.2-2.1-2.2V59.9z"/>
				<path fill="#B5E604" d="M214.3,61.4c-1.7,0-2.1,1.2-2.1,2.2c0,0.8,0.1,1.7,0.2,2.6c0.1,0.9,0.2,1.8,0.2,2.7
					c0,2.9-1.8,3.9-3.8,3.9h-0.4v-1.6h0.4c1.4-0.2,1.8-0.9,1.8-2.3c0-0.8-0.1-1.6-0.2-2.3c-0.1-0.8-0.2-1.5-0.2-2.3
					c0-2.4,0.8-3.2,2.1-3.6v-0.1c-1.3-0.4-2.1-1.2-2.1-3.6c0-0.7,0.1-1.5,0.2-2.2c0.1-0.7,0.2-1.5,0.2-2.3c0-1.4-0.5-2.1-1.8-2.3
					h-0.5v-1.6h0.4c2.2,0,3.8,1.2,3.8,3.9c0,0.9-0.1,1.8-0.2,2.7c-0.1,0.8-0.2,1.7-0.2,2.6c0,1,0.4,2.1,2.1,2.1V61.4z"/>
			</g>
		</g>
		<polygon fill="#499EB2" points="203.9,63.6 203.9,57.8 198.8,54.9 193.8,57.8 193.8,63.6 198.8,66.6 		"/>
	</g>
	<g>
		<path fill="#499EB2" d="M241.9,92.7c-4.8-2.4-10.5-1.4-14.2,2.3c-4.6,4.6-4.8,12.1-0.5,16.9l-1.9-0.2c-0.2,0-0.4,0.1-0.5,0.4
			c0,0.2,0.1,0.4,0.4,0.5l2.8,0.3c0.1,0,0.2,0,0.3-0.1c0.1-0.1,0.1-0.2,0.2-0.3l0.3-2.7c0-0.2-0.1-0.4-0.4-0.5
			c-0.2,0-0.4,0.1-0.5,0.4l-0.2,1.7c-4-4.5-3.9-11.5,0.4-15.8c3.5-3.5,8.8-4.4,13.3-2.2c0.2,0.1,0.4,0,0.5-0.2
			C242.2,93.1,242.1,92.8,241.9,92.7z"/>
		<path fill="#499EB2" d="M231.3,115.4c4.8,2.4,10.5,1.4,14.2-2.3c4.6-4.6,4.8-12.1,0.5-16.9l1.9,0.2c0.2,0,0.4-0.1,0.5-0.4
			c0-0.2-0.1-0.4-0.4-0.5l-2.8-0.3c-0.1,0-0.2,0-0.3,0.1c-0.1,0.1-0.1,0.2-0.2,0.3l-0.3,2.7c0,0.2,0.1,0.4,0.4,0.5
			c0.2,0,0.4-0.1,0.5-0.4l0.2-1.7c4,4.5,3.9,11.5-0.4,15.8c-3.5,3.5-8.8,4.4-13.3,2.2c-0.2-0.1-0.4,0-0.5,0.2
			C231,115,231.1,115.3,231.3,115.4z"/>
	</g>
	<g>
		<path fill="#499EB2" d="M340.7,138.4h-74.1c-1.4,0-2.4-1.1-2.4-2.4l0,0c0-1.4,1.1-2.4,2.4-2.4h74.1c1.4,0,2.4,1.1,2.4,2.4l0,0
			C343.2,137.3,342.1,138.4,340.7,138.4z"/>
		<path fill="#B5E604" d="M314.3,149h-47.6c-1.4,0-2.4-1.1-2.4-2.4l0,0c0-1.4,1.1-2.4,2.4-2.4h47.6c1.4,0,2.4,1.1,2.4,2.4l0,0
			C316.7,147.9,315.6,149,314.3,149z"/>
		<path fill="#B5E604" d="M314.3,160.4h-47.6c-1.4,0-2.4-1.1-2.4-2.4l0,0c0-1.4,1.1-2.4,2.4-2.4h47.6c1.4,0,2.4,1.1,2.4,2.4l0,0
			C316.7,159.3,315.6,160.4,314.3,160.4z"/>
	</g>
	<g>
		<path fill="#B5E604" d="M78.1,97.7H39.6c-1.4,0-2.4-1.1-2.4-2.4l0,0c0-1.4,1.1-2.4,2.4-2.4h38.5c1.4,0,2.4,1.1,2.4,2.4l0,0
			C80.5,96.6,79.4,97.7,78.1,97.7z"/>
		<path fill="#499EB2" d="M63.6,108.4h-24c-1.4,0-2.4-1.1-2.4-2.4l0,0c0-1.4,1.1-2.4,2.4-2.4h24c1.4,0,2.4,1.1,2.4,2.4l0,0
			C66,107.3,64.9,108.4,63.6,108.4z"/>
		<path fill="#499EB2" d="M63.6,119.8h-24c-1.4,0-2.4-1.1-2.4-2.4l0,0c0-1.4,1.1-2.4,2.4-2.4h24c1.4,0,2.4,1.1,2.4,2.4l0,0
			C66,118.7,64.9,119.8,63.6,119.8z"/>
	</g>
	<g>
		<path fill="#4FD00A" d="M307.4,275c-2.4,7-5.3,13-8.3,18.5c-10.4,18.9-22.4,30.9-22.8,48.6c0,0-3.7-16.6-0.7-35.5
			c1.7-10.6,5.5-22,13.2-31.6c21.6-26.6,18.4-50.8,18.4-50.8S318,244,307.4,275z"/>
		<path opacity="0.25" fill="#4FD00A" d="M282.3,321.3c0,0-2.6-13.7,10.9-33.5c13.5-19.8,17.7-56.9,14-63.6"/>
		<path opacity="0.25" fill="#4FD00A" d="M299.1,293.5c-10.4,18.9-22.4,30.9-22.8,48.6c0,0-3.7-16.6-0.7-35.5
			C282.3,303.8,291.7,299.3,299.1,293.5z"/>
		<path fill="#4FD00A" d="M282.3,360.7c0,0-7.6-12.9,10.3-28.9c17.9-16,31.9-37,29.2-54.1c-17.1,19.9-62.6,48.1-49.8,83L282.3,360.7
			z"/>
		<path opacity="0.25" fill="#4FD00A" d="M321.8,277.7c0,0-5.4,13.1-22.9,27.2c-17.6,14.1-28,40.4-21.3,55.8"/>
	</g>
	<g>
		<path fill="#A6E080" d="M25.5,267.1c0,0-9.3-8.5-14.3-29.8c28.6,24.2,35.6,45.8,35.6,45.8L25.5,267.1z"/>
		<path opacity="0.25" fill="#8AC667" d="M11.2,237.3c0,0,17.7,25.6,21.8,35.4"/>
		<path fill="#4FD00A" d="M46.2,279c-5.1-4.6-12.8-9.2-20-14.2c-9.6-6.6-18.6-13.8-20.3-22.6c-3.8,31.8,33.2,46.1,33.2,46.1l0.1,0.1
			l13.4,19.6C52.7,308.1,58.2,289.8,46.2,279z"/>
		<path opacity="0.25" fill="#4FD00A" d="M5.9,242.3c0,0-0.6,11.4,11.1,21c11.7,9.6,35.7,17.6,35.6,44.8"/>
	</g>
	<path fill="#EBF7ED" d="M309.6,374.9H61c-3.9,0-7.1-3.2-7.1-7.1l0,0c0-3.9,3.2-7.1,7.1-7.1h248.6c3.9,0,7.1,3.2,7.1,7.1l0,0
		C316.7,371.7,313.6,374.9,309.6,374.9z"/>
</g>
<g>
	<path fill="#B5E604" d="M152.1,218c0.2,0.7,0.2,1.4-0.3,1.8l-1.6,1.6l-3.2,3.2l-1-0.4c0.2,0.6,0.1,1.2-0.2,1.6
		c-0.1,0.2-0.3,0.4-0.6,0.6c-0.2,0.2-0.5,0.2-0.6,0.3c-0.2,0.1-0.5,0.1-0.9,0.1c-1.2,0-2.5-0.6-3.4-1.4c-0.3-0.2-0.6-0.6-0.8-1.1
		c-0.1-0.2-0.2-0.4-0.2-0.5c0.6-0.6,1.3-1.2,1.9-1.9c1-1,2-2,2.9-3l0.2-0.2l2.6-2.6c0.8-0.9,2.6-0.7,3.9,0.3
		C151.5,217,151.9,217.5,152.1,218z"/>
	<path fill="#4FD00A" d="M144.1,219.1l0.2-0.2l5.8,2.7l2.3,1.1c1.5,0.7,2.4,2.2,2,3.3c-0.3,0.7-1,1.1-1.9,1.1c-0.5,0-1-0.1-1.6-0.4
		l-4.1-1.9l-1-0.4"/>
	<path opacity="0.45" fill="#CEE807" d="M143.9,218.6l2,5.4c0,0.1,0.1,0.2,0.1,0.3c0.2,0.6,0.1,1.2-0.2,1.6
		c-0.1,0.2-0.3,0.4-0.6,0.6c-0.2,0.2-0.5,0.2-0.6,0.3c-0.2,0.1-0.5,0.1-0.9,0.1c-1.2,0-2.5-0.6-3.4-1.4c-0.5-0.4-0.8-1-1-1.5l-2-5.4
		c-0.2-0.6-0.2-1.1-0.1-1.5c0,0,0,0,0,0c0.3-0.8,1.1-1.4,2.3-1.4c0.9,0,1.9,0.3,2.7,0.9C143,217,143.6,217.8,143.9,218.6z"/>
</g>
</svg>
